<svg width="230" height="28" viewBox="0 0 230 28" fill="none" xmlns="http://www.w3.org/2000/svg">
<path d="M0.199997 28V20H4.2V16H8.2V0H28.2V28H20.2V4H12.2V24H8.2V28H0.199997ZM37.8 28V24H33.8V12H37.8V8H57.8V12H61.8V24H57.8V28H37.8ZM41.8 24H53.8V12H41.8V24ZM71.4 28V8H95.4V16H91.4V12H79.4V28H71.4ZM105 28V24H101V12H105V8H125V12H129V24H125V28H105ZM109 24H121V12H109V24ZM146.6 28V12H138.6V8H162.6V12H154.6V28H146.6ZM176.2 20H180.2V24H176.2V28H168.2V8H176.2V20ZM196.2 8V28H188.2V16H184.2V12H188.2V8H196.2ZM180.2 16H184.2V20H180.2V16ZM201.8 28V8H229.8V28H221.8V12H209.8V28H201.8Z" fill="#F3F1F0"/>
</svg>
