<svg width="28" height="30" viewBox="0 0 28 30" fill="none" xmlns="http://www.w3.org/2000/svg">
<path d="M8.6514 4.28488L8.67848 4.3438C8.68236 4.35224 8.68446 4.3612 8.68479 4.37021C8.68512 4.37922 8.68367 4.38827 8.68045 4.39689L9.61708 4.74721L8.68045 4.39689C8.67722 4.40552 8.67222 4.41369 8.66555 4.42083C8.65887 4.42797 8.65063 4.43396 8.64119 4.43825L8.63986 4.43886C5.97626 5.6546 3.80864 7.74061 2.49686 10.3522C1.18507 12.9638 0.808144 15.9437 1.42883 18.7982C2.04893 21.6528 3.63312 24.2082 5.91598 26.0385L5.91651 26.0389C7.33428 27.174 8.97753 27.9962 10.7376 28.4514C12.4976 28.9067 14.3345 28.9846 16.127 28.6802C17.9195 28.3757 19.6269 27.6957 21.1363 26.6849C22.6458 25.6742 23.923 24.3556 24.8833 22.8161C25.8435 21.2767 26.465 19.5515 26.7063 17.7546C26.9477 15.9577 26.8034 14.1303 26.283 12.3932C25.7626 10.6562 24.8782 9.04916 23.6882 7.67836C22.4983 6.30757 21.0301 5.20423 19.3808 4.44103L19.3793 4.44035C19.3601 4.43152 19.3465 4.41608 19.34 4.3986C19.3336 4.38123 19.3343 4.36216 19.3422 4.34519C19.3502 4.32808 19.3652 4.31362 19.3852 4.3063C19.4053 4.29893 19.4277 4.29988 19.447 4.30876L19.4492 4.30979C22.1436 5.54312 24.331 7.65911 25.6472 10.3038C26.9635 12.9487 27.333 15.9617 26.6951 18.844C26.0571 21.7261 24.4499 24.3054 22.1386 26.1544C19.8249 27.9995 16.9478 29.0036 13.9828 29C11.0183 28.9964 8.1443 27.9857 5.83534 26.1356C3.5324 24.2735 1.93232 21.6891 1.29568 18.805C0.666796 15.919 1.04769 12.9055 2.37546 10.2646L2.37656 10.2624C3.697 7.61981 5.8919 5.51042 8.59233 4.29038L8.59554 4.28892C8.60498 4.28461 8.61533 4.28214 8.62598 4.28175C8.63463 4.28144 8.64322 4.28252 8.6514 4.28488ZM13.981 1C14.0027 1 14.0227 1.00861 14.0368 1.02269C14.0508 1.03663 14.058 1.0547 14.058 1.07272V13.9454C14.058 13.9634 14.0508 13.9814 14.0368 13.9954C14.0227 14.0095 14.0027 14.0181 13.981 14.0181C13.9593 14.0181 13.9393 14.0095 13.9252 13.9954C13.9112 13.9814 13.9041 13.9634 13.9041 13.9454V1.07272C13.9041 1.0547 13.9112 1.03663 13.9252 1.02269C13.9393 1.00861 13.9593 1 13.981 1Z" fill="#F3F1F0" stroke="#F3F1F0" stroke-width="2"/>
</svg>
